<svg xmlns="http://www.w3.org/2000/svg" viewBox="0 0 100 100">
  <rect width="100" height="100" fill="#1e1e1e"/>
  <svg x="13" y="30" width="74" height="37.8" viewBox="0 0 47 24" fill="none"
       stroke="#8c6edc" stroke-width="2.2" stroke-linecap="round" stroke-linejoin="round">
    <polyline points="10,5 5,12 10,19"/>
  <path d="M13,18 L13,11 Q13,9 15.5,9 Q18,9 18,11 L18,18 M18,11 Q18,9 20.5,9 Q23,9 23,11 L23,18"/>
  <path d="M29.5,6 Q27,5 27,8 L27,18 M24.5,9.5 L30,9.5"/>
  <line x1="34" y1="5" x2="31" y2="19"/>
  <polyline points="37,5 42,12 37,19"/>
  </svg>
</svg>